<svg xmlns="http://www.w3.org/2000/svg" width="20px" height="20px" viewBox="0 0 21 21">
<g fill="#ffffff">
	<path d="M8.45,9.9L0.67,6.21c-0.89-0.42-0.89-1.75,0-2.17l7.78-3.69c0.99-0.47,2.12-0.47,3.1,0l7.78,3.69
		c0.89,0.42,0.89,1.75,0,2.17L11.55,9.9C10.56,10.37,9.43,10.37,8.45,9.9z"/>
	<path d="M19.33,8.79l-1.15-0.55l-6.1,2.89c-0.66,0.31-1.36,0.47-2.08,0.47c-0.72,0-1.42-0.16-2.08-0.47l-6.1-2.89L0.67,8.79
		c-0.89,0.42-0.89,1.75,0,2.17l7.78,3.69c0.99,0.47,2.12,0.47,3.1,0l7.78-3.69C20.22,10.54,20.22,9.21,19.33,8.79z"/>
</g>
</svg>
