<?xml version="1.0" encoding="utf-8"?>
<!-- Generator: Adobe Illustrator 26.5.2, SVG Export Plug-In . SVG Version: 6.00 Build 0)  -->
<svg version="1.1" id="レイヤー_1" xmlns="http://www.w3.org/2000/svg" xmlns:xlink="http://www.w3.org/1999/xlink" x="0px"
	 y="0px" viewBox="0 0 190 60" style="enable-background:new 0 0 190 60;" xml:space="preserve">
<style type="text/css">
	.st0{fill:#595858;}
	.st1{fill:#AAC9FA;}
	.st2{fill:#C9E1EB;}
	.st3{fill:#8EAEDC;}
	.st4{fill:#FFF7E6;}
</style>
<g>
	<g>
		<path class="st0" d="M78,6.2c0.1,0,0.2,0,0.2,0.1c0,0,0,0.1-0.1,0.1c-0.1,0.2-0.4,1.5-0.4,1.9c-0.2,1.2-0.6,2.4-1.2,3.5
			c-0.8,1.4-1.8,2.6-3.2,3.5c-1.4,0.9-3,1.4-4.6,1.8l-0.4-0.9c2.5-0.7,4.4-1.7,5.8-4c1.2-2,1.5-4.2,1.7-6.5L78,6.2z"/>
		<path class="st0" d="M84.8,10.9h5.5c1.2,0,2.4,0,3.6,0v1.2c-1.2,0-2.4,0-3.6,0h-5.5c-1.2,0-2.4,0-3.6,0v-1.2
			C82.4,10.9,83.6,10.9,84.8,10.9z"/>
		<path class="st0" d="M98,11.5c-0.3-1.6-0.9-3-1.8-4.4l0.9-0.5c1.1,1.2,2.1,2.5,2.8,4L98,11.5z M98.6,16.7c0.2,0,0.5-0.1,0.7-0.2
			c2.4-0.9,4.1-2.4,5.2-4.7c1-1.9,1.3-4.1,1.3-6.2l2.1,0.4c0.2,0,0.2,0,0.2,0.1c0,0.1,0,0.1,0,0.2c0,0.1-0.1,0.1-0.1,0.3
			c-0.5,3.4-1.1,5.6-3.1,7.8c-1.6,1.8-3.6,2.7-5.8,3.4L98.6,16.7z M101.9,10.1c-0.3-1.3-0.7-2.7-1.5-3.8l0.9-0.5
			c1,1,1.9,2.2,2.6,3.5L101.9,10.1z"/>
	</g>
	<path class="st0" d="M77.8,21.9c0.4,0,0.7,0.1,0.7,0.3c0,0.1-0.1,0.3-0.1,0.5c0,0.5,0,1.2,0,1.7c1.5-0.1,3-0.1,4.4-0.2v1.3
		c-0.2,0-0.5,0-0.8,0c-1.2,0-2.4,0-3.6,0.1c0,1.7,0.1,3.4,0.1,5.2c0,4-2.2,6.1-5.9,7.1l-1-0.9c1.2-0.3,2.3-0.7,3.2-1.6
		c0.7-0.7,1-1.4,1.2-2.3c-0.6,0.6-1.4,1-2.2,1c-1.9,0-2.7-1.7-2.7-3.4c0-1.9,0.9-3.8,3-3.8c0.8,0,1.4,0.2,2,0.6c0-0.6,0-1.2,0-1.8
		c-2.6,0.1-5.2,0.2-7.8,0.5v-1.3c2.6-0.1,5.2-0.2,7.8-0.3c0-0.9-0.1-1.8-0.2-2.8L77.8,21.9z M73.1,30.2c0,0.9,0.3,2.1,1.4,2.1
		c0.7,0,1.2-0.6,1.4-1.2c0.1-0.4,0.1-0.7,0.1-1.1c0-0.9-0.4-1.9-1.4-1.9C73.4,28.1,73.1,29.3,73.1,30.2z"/>
	<path class="st0" d="M88.9,31.2c-0.5,0.6-0.9,1.3-0.9,2.1c0,1.5,2.4,1.6,3.5,1.6c2.4,0,4.8-0.3,7.1-0.9v2.5
		c-1.9,0.3-3.9,0.4-5.8,0.4c-2,0-6.6-0.1-6.6-2.9c0-1.3,0.8-2.4,1.6-3.2L88.9,31.2z M97,25.8c-2.4-1.1-5.5-1.5-8.2-1.5
		c-0.3,0-0.7,0-1,0l0-1.2c1.5-0.2,3-0.4,4.5-0.4c1.7,0,3.5,0.2,5.2,0.5L97,25.8z"/>
	<path class="st0" d="M102,27.7c1.2-0.3,2.5-0.7,3.8-1c-0.3-1.4-0.6-2.8-0.9-4.1c0.5-0.1,2-0.1,2.2-0.2c0.1,0,0.2,0,0.3,0
		c0.2,0,0.3,0,0.3,0.2c0,0.1-0.1,0.3-0.1,0.4c0,0.4,0.5,2.6,0.6,3.1c0.9-0.2,1.7-0.4,2.6-0.5c0.6-0.8,1.2-2.5,1.4-3.5l2.2,0.5
		c0.3,0.1,0.6,0.1,0.6,0.3c0,0.1,0,0.1-0.2,0.2c-0.3,0.3-0.5,0.6-0.7,0.9c-0.4,0.5-0.7,1-1.1,1.5c1.3,0.1,2.6,0.4,3.5,1.3
		c0.6,0.6,0.8,1.4,0.8,2.2c0,2.8-2.7,3.7-5.1,3.7c-0.6,0-1.1,0-1.7-0.1l0.1-1.2c0.4,0.1,0.8,0.1,1.2,0.1c1.4,0,2.8-0.8,2.8-2.3
		c0-1.8-1.5-2.4-3-2.4c-1.1,0-2.2,0.2-3.2,0.5c0.7,3.2,1.4,6.5,2.1,9.7l-2.5,0.5c-0.6-3.2-1.3-6.4-2-9.5c-1.2,0.4-2.5,0.8-3.6,1.4
		L102,27.7z"/>
	<g>
		<path class="st0" d="M128.1,22.7c0.1,0.1,0.5,0.2,0.5,0.3c0,0.1,0,0.1-0.1,0.2c-0.2,0.2-0.8,2.1-1,2.6c0.5-0.1,1.1-0.1,1.6-0.1
			c2.7,0,3.3,1.6,3.3,4c0,2.2-0.5,7.6-3.5,7.6c-1.1,0-2.2-0.6-3.2-1.1l0.5-1.3c0.4,0.3,1.2,0.9,1.8,0.9c0.5,0,0.8-0.6,0.9-1
			c0.8-1.8,1-3.7,1-5.6c0-1.4,0-2.5-1.5-2.5c-0.5,0-0.9,0.1-1.3,0.1c-1.1,3.4-2.3,6.9-3.3,10.4l-2.5-0.9c1.1-3,2.1-6,3.1-9
			c-0.9,0.2-1.9,0.6-2.8,1l-0.3-1.4c1.2-0.3,2.4-0.6,3.6-0.8c0.5-1.4,0.9-2.7,1.4-4.1L128.1,22.7z M134.6,30.5
			c-0.2-1.6-0.8-3-1.4-4.5c-0.3-0.5-0.5-1-0.8-1.4l1.2-0.8c1.3,1.5,2.6,3.2,3.5,5.1L134.6,30.5z"/>
	</g>
	<path class="st0" d="M142.9,31.2c-0.5,0.6-0.9,1.3-0.9,2.1c0,1.5,2.4,1.6,3.5,1.6c2.4,0,4.8-0.3,7.1-0.9v2.5
		c-1.9,0.3-3.9,0.4-5.8,0.4c-2,0-6.6-0.1-6.6-2.9c0-1.3,0.8-2.4,1.6-3.2L142.9,31.2z M151,25.8c-2.4-1.1-5.5-1.5-8.2-1.5
		c-0.3,0-0.7,0-1,0l0-1.2c1.5-0.2,3-0.4,4.5-0.4c1.8,0,3.5,0.2,5.2,0.5L151,25.8z"/>
	<g>
		<path class="st0" d="M170.1,37.1c-1.6,0.2-3.1,0.2-4.7,0.2c-2.7,0-7.5-0.1-7.5-3.8c0-2.4,2.3-3.6,4.3-4.4c-0.3-0.9-0.4-2-0.4-3V24
			c0-0.6,0-1.3,0-1.9l2.2,0.2c0.4,0,0.6,0.1,0.6,0.2c0,0.1,0,0.1-0.1,0.2c-0.3,0.6-0.4,2.8-0.4,3.6c0,0.6,0.1,1.3,0.2,2
			c1.9-0.6,3.8-1,5.6-1.6l0.4,1.9c-1.9,0.1-3.8,0.4-5.6,0.9c-1.9,0.5-4.1,1.4-4.1,3.7c0,2.4,2.8,2.8,4.7,2.8c1.6,0,3.2-0.2,4.8-0.6
			L170.1,37.1L170.1,37.1z M170.2,25.8c-0.3-0.9-0.7-1.8-1.3-2.5l0.9-0.4c0.6,0.7,1.2,1.5,1.6,2.3L170.2,25.8z M171.6,22.3
			c0.6,0.6,1.1,1.3,1.6,2l-1.2,0.6c-0.3-0.8-0.7-1.5-1.2-2.2L171.6,22.3z"/>
	</g>
	<path class="st0" d="M186.2,26.6c-1.5,0-3,0.1-4.5,0.1c-0.1,1-0.2,2-0.4,3c1.5-0.1,3-0.1,4.5-0.3v1.3c-1.6,0-3.1,0.1-4.6,0.1
		c-0.1,0.9-0.2,1.8-0.2,2.6c0,2.2,1.4,2.8,3.4,2.8c2,0,3.7-0.7,3.7-2.9c0-1.1-0.3-2.2-0.8-3.2l1-0.5c0.8,1.2,1.7,2.7,1.7,4.2
		c0,1.3-0.8,2.4-2,2.9c-1.1,0.5-2.5,0.6-3.8,0.6c-1.5,0-3.3-0.1-4.6-1.1c-0.9-0.7-1.2-1.8-1.2-2.9c0-0.9,0.1-1.7,0.2-2.6
		c-0.9,0-1.9,0.1-2.9,0.1v-1.3c0.6,0,1.2,0,1.8,0c0.4,0,0.8,0,1.2,0c0.1-1,0.2-2,0.3-3c-0.9,0-1.9,0.1-2.9,0.1v-1.2
		c0.6,0,1.1,0,1.7,0c0.4,0,0.8,0,1.3,0c0.1-1.1,0.2-2.3,0.3-3.5l2.1,0.3c0.4,0.1,0.7,0.1,0.7,0.3c0,0.1-0.1,0.2-0.2,0.4
		c-0.1,0.2-0.4,2-0.4,2.4c1.5-0.1,2.9-0.1,4.4-0.3V26.6L186.2,26.6z"/>
	<g>
		<path class="st0" d="M71.9,53.2c-0.8,1-1.6,1.9-2.7,2.6l-0.7-0.5c0.8-0.9,1.3-2.1,1.6-3.3h-0.8v-9.8h5.5v9.8h-0.9
			c0.4,1.1,0.9,2.2,1.6,3.1l-0.8,0.6c-1.1-0.7-2-1.7-2.7-2.8C72,53.1,72,53.1,71.9,53.2z M73.8,52.1h-3.3l1.5,0.6
			c0.2,0.1,0.2,0.1,0.2,0.2L73.8,52.1z M72.9,43.1h-1.6v2.1h1.6V43.1z M71.2,46v2.1h1.6V46H71.2z M71.2,49v2.2h1.6V49H71.2z
			 M75.7,53.8l-0.6-0.6c1.4-1.9,2.4-4.9,2.7-7.1h-2.5v-0.8h4.1V43c0-0.4,0-0.8-0.1-1.1l2,0c0.1,0,0.1,0.1,0.1,0.1
			c0,0.1,0,0.2-0.1,0.3v3h1.5v0.8h-1.5v7.8c0,1.2-0.3,1.8-1.6,1.8h-2.5l-0.2-0.9c0.5,0.1,1.1,0.1,1.6,0.1c0.7,0,0.8-0.1,0.8-0.9
			v-5.8C78.5,50.4,77.4,52.3,75.7,53.8z"/>
		<g>
			<path class="st0" d="M88.3,55v0.8h-2V42.3h13.1v13.4h-2V55H88.3z M97.4,43.2h-9.1v11h9.1V43.2z M93.8,45c0-0.4,0-0.8-0.1-1.1h1.9
				c0.1,0,0.3,0,0.3,0.2c0,0.1,0,0.1-0.1,0.3V46H97v0.8h-1.2v5c0,1.2-0.6,1.5-1.7,1.5h-2.6l-0.4-1c0.6,0.1,1.2,0.1,1.9,0.1
				c0.7,0,0.7-0.2,0.7-0.9v-4.9h-5.1V46h5.1L93.8,45L93.8,45z M93.1,50.2l-1.7,1.5c-0.6-1.2-1.3-2.4-2.2-3.4l0.6-0.6
				C90.8,48.3,92.4,49.4,93.1,50.2z"/>
		</g>
	</g>
</g>
<g>
	<path class="st1" d="M13.8,58.4C19.6,57,25,54.9,30,52C20.6,46.5,12.8,38.6,7.5,29c-2.4,0.6-4.9,1-7.5,1v8
		C0,47.2,5.7,55.1,13.8,58.4z"/>
	<path class="st2" d="M7.5,29C12.8,38.6,20.6,46.5,30,52c14.1-8.1,24.6-21.9,28.4-38.2C55.1,5.7,47.2,0,38,0h-8
		C30,14,20.4,25.7,7.5,29z"/>
	<path class="st3" d="M58.4,13.8C54.6,30.1,44.1,43.8,30,52c-5,2.9-10.5,5.1-16.2,6.4c2.5,1,5.3,1.6,8.2,1.6h16
		c2.9,0,5.7-0.6,8.2-1.6C54.3,55.1,60,47.2,60,38V22C60,19.1,59.4,16.3,58.4,13.8z"/>
	<path class="st4" d="M22,0C12.7,0,4.9,5.7,1.6,13.8C0.6,16.3,0,19.1,0,22v8c2.6,0,5.1-0.4,7.5-1C20.4,25.7,30,14,30,0H22L22,0z"/>
</g>
</svg>
