<?xml version="1.0" encoding="UTF-8"?>
<svg id="_レイヤー_7" data-name="レイヤー 7" xmlns="http://www.w3.org/2000/svg" xmlns:xlink="http://www.w3.org/1999/xlink" viewBox="0 0 95.11 38.15">
  <defs>
    <style>
      .cls-1 {
        clip-path: url(#clippath);
      }

      .cls-2 {
        fill: none;
      }

      .cls-2, .cls-3, .cls-4, .cls-5, .cls-6, .cls-7, .cls-8, .cls-9, .cls-10, .cls-11 {
        stroke-width: 0px;
      }

      .cls-3 {
        fill: #caae3f;
      }

      .cls-4 {
        fill: #d0e3e8;
      }

      .cls-5 {
        fill: #040000;
      }

      .cls-6 {
        fill: #ddc24c;
      }

      .cls-7 {
        fill: #9dccdf;
      }

      .cls-8 {
        fill: #ddd44d;
      }

      .cls-9 {
        fill: #87afc2;
      }

      .cls-10 {
        fill: #fff;
      }

      .cls-11 {
        fill: #e5f3f5;
      }
    </style>
    <clipPath id="clippath">
      <path class="cls-2" d="M.8,17.12c1.92,3.31,6.24,4.48,6.24,4.48-3.12,1.66-5.38,1.58-5.38,1.58,4.78,6.01,48.13,16.11,79.63-4.93C64.83,9.98,26.75-3.2.8,17.12Z"/>
    </clipPath>
  </defs>
  <path class="cls-6" d="M89.47,24.93c-2.21-2.51-4.4-5.6-4.4-6.63s2.19-4.12,4.4-6.63c1.6-1.82,2.9-2.93,4.91-3.69-8.12-1.78-14.41,10.33-18.47,10.33,4.06,0,10.35,12.11,18.47,10.33-2.01-.76-3.31-1.87-4.91-3.69Z"/>
  <g>
    <path class="cls-6" d="M51.81,28.39c2.36,2.87,4.79,4.3,8.53,5.02,1.18-5.27,6.87-4,15.78-10.89-2.89-1.08-5.23-1.3-5.23-1.3-14.15,6.21-14.36,5.76-19.07,7.17Z"/>
    <g>
      <path class="cls-6" d="M30.83,7.05c2.56-1.79,4.99-4.18,4.99-4.18-.75,2.24.14,2.17,2.21,1.17-1.17,2.34,1.97,1.25,1.97,1.25-1.09.83-2.78,2.05-2.78,2.05-3.26.07-6.4-.29-6.4-.29Z"/>
      <path class="cls-6" d="M35.52,9.79c6.34-5.02,11.52-7.49,14.37-8.39.31,2.8,3.33,4.76,7.96,6.18,5.77,1.77,8.99.63,20.14,5.1-.49.29-4.75-.29-6.35,2.04-11.45-.2-33.98-4.35-36.11-4.93Z"/>
      <g>
        <path class="cls-3" d="M41.95,7.66c3.97-2.56,5.54-3.2,6.82-3.6-3.58,3.01-4.48,4-4.48,4l-2.33-.39Z"/>
        <path class="cls-3" d="M44.67,9.01c3.97-2.56,5.12-3.07,6.4-3.47-3.58,3.01-4.07,3.86-4.07,3.86l-2.33-.39Z"/>
      </g>
    </g>
    <path class="cls-6" d="M24.25,30.09c1.52,3.08,4.68,6.12,8.38,6.58.24.03.87.21.6-.46-.67-1.68-1.47-3.35-1.99-4.01-1.03-1.29-2.6-1.23-3.23-1.82-.92-.2-1.5-.29-3.76-.29Z"/>
    <path class="cls-4" d="M.8,17.12c1.92,3.31,6.24,4.48,6.24,4.48-3.12,1.66-5.38,1.58-5.38,1.58,4.78,6.01,48.13,16.11,79.63-4.93C64.83,9.98,26.75-3.2.8,17.12Z"/>
    <path class="cls-11" d="M23.2,27.31c19.52-.76,38.2-3.76,47.23-5.45-10.19,5.45-34.16,8.66-47.23,5.45Z"/>
    <g class="cls-1">
      <g>
        <path class="cls-8" d="M-.38,16.35c20.5-3.04,79.37.95,79.73,1.02C48.97,4.67,18.63,1.6-.38,16.35Z"/>
        <path class="cls-9" d="M-3.5,17.88c38.23-9.01,85.43.3,85.8.61C60.41,4.67,10.96-.84-3.5,17.88Z"/>
        <path class="cls-7" d="M19.38,12.35c6.54-3.32,19.51-3.22,28.21-.83-11.61-.52-24.06.62-28.21.83Z"/>
      </g>
    </g>
    <path class="cls-9" d="M23.2,19.98c1.05.47,3.61,2.06,1.5,4.7,5.92.18,6.96-2.33,8.97-3.75,2.02-1.42,4.08-1.54,2.15-2.16-4.3-1.38-9.77-.02-12.62,1.2Z"/>
    <g>
      <circle class="cls-10" cx="10.69" cy="18.27" r="2.1"/>
      <circle class="cls-5" cx="10.69" cy="18.27" r="1.38"/>
    </g>
    <path class="cls-9" d="M20.08,16.13c2.64,3.42,4.17,11.52-2.68,11.46,4.03-1.66,4.16-5.71,2.68-11.46Z"/>
  </g>
</svg>