<?xml version="1.0" encoding="UTF-8"?>
<svg id="_レイヤー_7" data-name="レイヤー 7" xmlns="http://www.w3.org/2000/svg" xmlns:xlink="http://www.w3.org/1999/xlink" viewBox="0 0 445.91 97.41">
  <defs>
    <style>
      .cls-1 {
        fill: #87aaca;
      }

      .cls-1, .cls-2, .cls-3, .cls-4, .cls-5, .cls-6, .cls-7, .cls-8, .cls-9, .cls-10, .cls-11, .cls-12, .cls-13, .cls-14, .cls-15, .cls-16, .cls-17, .cls-18, .cls-19, .cls-20, .cls-21, .cls-22, .cls-23, .cls-24 {
        stroke-width: 0px;
      }

      .cls-25 {
        clip-path: url(#clippath);
      }

      .cls-2 {
        fill: none;
      }

      .cls-3 {
        fill: #517fad;
      }

      .cls-4 {
        fill: #caae3f;
      }

      .cls-5 {
        fill: #d0e3e8;
      }

      .cls-6 {
        fill: #2f587e;
      }

      .cls-7 {
        fill: #7baec6;
      }

      .cls-8 {
        fill: #b9dadf;
      }

      .cls-26 {
        clip-path: url(#clippath-1);
      }

      .cls-27 {
        clip-path: url(#clippath-4);
      }

      .cls-28 {
        clip-path: url(#clippath-3);
      }

      .cls-29 {
        clip-path: url(#clippath-2);
      }

      .cls-9 {
        fill: #96d2d4;
      }

      .cls-10 {
        fill: #dbeff6;
      }

      .cls-11 {
        fill: #67acc4;
      }

      .cls-12 {
        fill: #485ba0;
      }

      .cls-13 {
        fill: #376ba8;
      }

      .cls-14 {
        fill: #040000;
      }

      .cls-15 {
        fill: #ddc24c;
      }

      .cls-16 {
        fill: #9dccdf;
      }

      .cls-17 {
        fill: #b6ceeb;
      }

      .cls-18 {
        fill: #304588;
      }

      .cls-19 {
        fill: #c6e2f6;
      }

      .cls-20 {
        fill: #ddd44d;
      }

      .cls-21 {
        fill: #8dbad7;
      }

      .cls-22 {
        fill: #87afc2;
      }

      .cls-23 {
        fill: #fff;
      }

      .cls-24 {
        fill: #e5f3f5;
      }
    </style>
    <clipPath id="clippath">
      <path class="cls-2" d="M121.57,21.39c6.54-6.62,20.35-7.3,32.13-6.44,8.61.63,19.84,2.84,27.8,4.81.74.18.94,1.83,0,2.35-15.14,8.39-50.97,13.29-59.14,2.95,2.18.15,5.04-.52,5.04-.52-1.12-.06-4.99-1.19-5.83-3.16Z"/>
    </clipPath>
    <clipPath id="clippath-1">
      <path class="cls-2" d="M6.59,46.08c3.68-1.42,7.03-2.91,12.76-3.88,2.51-.43,5.71-1.57,9.1-1.95,22.95-2.58,60.63,3.27,75.81,6.14-7.28,2.6-16.53,6.17-29.66,6.58-10.48.33-29.02.28-42.07.2-12.02-.08-21.53-2.07-25.74-5.45,1.77-.03,3.72-.39,3.72-.39-2.86-.15-3.92-1.25-3.92-1.25Z"/>
    </clipPath>
    <clipPath id="clippath-2">
      <path class="cls-2" d="M355.92,28.24c-1.27.77-4.48,3.39-5.05,4.78,1.65,1.15,4.08,2,7.14,2.24-1.51.9-3.81,1.16-5.99,1.26,2.33,1.94,8.71,3.91,12.52,4.5,22.75,3.52,40.1,1.03,67.16-9.4-40.41-12.56-62.41-11.55-75.77-3.39Z"/>
    </clipPath>
    <clipPath id="clippath-3">
      <path class="cls-2" d="M215.38,58.03c2.37,4.08,7.69,5.52,7.69,5.52-3.85,2.05-6.63,1.95-6.63,1.95,5.9,7.42,59.35,19.86,98.19-6.07-20.31-10.2-67.26-26.45-99.26-1.4Z"/>
    </clipPath>
    <clipPath id="clippath-4">
      <path class="cls-2" d="M113.91,76.34c1.19,2.05,3.95,3.04,3.95,3.04-1.53.73-3.42.71-3.42.71,2.96,3.72,23.94,9.97,43.43-3.05-10.21-4.19-30.71-11.45-43.97-.7Z"/>
    </clipPath>
  </defs>
  <g>
    <g>
      <path class="cls-3" d="M185.34,23.98c-1.05-1.51-1.59-1.95-1.55-2.62-.04-.68.5-1.12,1.55-2.62,1.54-2.2,2.58-3.34,3.95-4.83.47-.51-1.7-.25-3.12.29-2.67,1.01-6,5.04-8.15,5.04,0,.33-.06,1.18-.06,2.12s.06,1.8.06,2.12c2.15,0,5.48,4.04,8.15,5.04,1.42.54,3.6.8,3.12.29-1.38-1.49-2.42-2.63-3.95-4.83Z"/>
      <path class="cls-21" d="M161.48,27.11c2.1,1.48,3.18,2.2,4.45,3.21,3.84-2.3,3.76-1.91,8.65-3.96-.58-1.52-3.24-1.79-3.24-1.79-2.87.9-6.94,1.42-9.86,2.53Z"/>
      <path class="cls-21" d="M150.1,29.13c1.65,2.3,2.99,2.84,4.14,3.33.7.3,1.36.4,1.13.14-.73-.81.11-1.52-.54-2.53-.16-.25-2.33-.64-3.84-1.22-1.12-.43-1.65-.79-.88.28Z"/>
      <path class="cls-21" d="M144.8,16.98c1.55-2.13,5.62-4.7,9.01-5.46-.88,2.16.68,3.52.87,5.46-8.72.77-8.43.29-9.88,0Z"/>
    </g>
    <g>
      <g>
        <path class="cls-19" d="M121.57,21.39c6.54-6.62,20.35-7.3,32.13-6.44,8.61.63,19.84,2.84,27.8,4.81.74.18.94,1.83,0,2.35-15.14,8.39-50.97,13.29-59.14,2.95,2.18.15,5.04-.52,5.04-.52-1.12-.06-4.99-1.19-5.83-3.16Z"/>
        <g class="cls-25">
          <path class="cls-3" d="M120.3,21.68c22.47-6.96,62.42-.05,64.16-.14-6.83-7.58-55.51-11.58-64.16.14Z"/>
        </g>
        <g>
          <path class="cls-3" d="M154.01,20.78c0,.66.42,1.19.92,1.19.5,0,.91-.54.91-1.2,0-.66-.41-1.2-.92-1.2-.51,0-.91.54-.91,1.2Z"/>
          <path class="cls-3" d="M149.46,20.82c0,.31.11.58.27.77.16.2.37.32.6.31.46-.01.83-.51.81-1.12-.01-.61-.4-1.1-.87-1.09-.23,0-.44.13-.59.34-.15.2-.23.48-.22.79Z"/>
          <path class="cls-3" d="M145.02,20.94c.03.56.4,1,.82.98.43-.02.75-.49.73-1.05-.02-.56-.39-1-.82-.98-.43.02-.75.49-.73,1.05Z"/>
          <path class="cls-3" d="M142.28,21.08c.01.51-.3.93-.68.94-.39.01-.71-.39-.73-.91-.01-.51.29-.93.68-.94.39-.01.72.39.73.91Z"/>
          <path class="cls-3" d="M160.34,20.96c-.03.61-.44,1.09-.9,1.06-.46-.02-.82-.53-.79-1.14.03-.61.43-1.09.9-1.07.47.02.82.54.79,1.15Z"/>
          <path class="cls-3" d="M164.78,21.17c-.04.56-.41.99-.84.97-.43-.03-.74-.5-.71-1.06.03-.56.41-.99.84-.97.43.03.75.5.71,1.06Z"/>
          <path class="cls-3" d="M167.52,21.33c-.01.51.29.93.68.95.39.01.72-.39.73-.9.01-.51-.29-.93-.68-.95-.39-.01-.72.39-.73.9Z"/>
        </g>
      </g>
      <g>
        <path class="cls-21" d="M139.08,26.96c3.21.24,6.15-.07,7.27-.13,2.44-.13,2.44.6,2.44.6,0,0-.05.81-2.31,1.53-2.26.71-5.58.22-7.4-1.99Z"/>
        <g>
          <circle class="cls-23" cx="131.05" cy="23.12" r="2.11"/>
          <circle class="cls-14" cx="131.05" cy="23.12" r="1.59"/>
        </g>
        <path class="cls-21" d="M136.09,19.8c2.8,1.92,3.51,9.69-.99,9.55,2.6-1.75,2.49-7.16.99-9.55Z"/>
      </g>
    </g>
  </g>
  <g>
    <g>
      <g>
        <path class="cls-18" d="M109.67,39.57c-.45-.16-1.45.15-2.58,1.28-2.41,2.41-4.17,5.01-6.3,5.57,2.12.56,3.89,3.16,6.3,5.57,1.13,1.13,2.13,1.44,2.58,1.28-.88-1.55-3.65-5.89-3.61-6.86-.04-.96,2.74-5.3,3.61-6.86Z"/>
        <path class="cls-19" d="M60.87,51.73c.82,2.55,3.2,5.5,3.64,5.06.45-.45.92-2.34.11-3.17-.84-.87-2.27-1.07-3.76-1.89Z"/>
        <path class="cls-19" d="M73.33,42.89c2.91-.98,4.13-1.57,6.47-3.17,1.39,1.83,6.92,3.21,7.96,3.26-1.12,1.52-1.65,1.99-1.65,1.99l-12.78-2.08Z"/>
        <path class="cls-19" d="M75.79,52.73c1.66,1.17,2.5,1.73,3.51,2.53,3.02-1.81,2.97-1.51,6.81-3.12-.46-1.19-2.55-1.41-2.55-1.41-2.26.71-5.47,1.11-7.77,2Z"/>
      </g>
      <g>
        <path class="cls-18" d="M89.48,44.22c.43-.23,1.27-.69,1.4-.73.54.57.96,1.03,1.06,1.13-1.44-.07-2.17-.3-2.46-.4Z"/>
        <path class="cls-18" d="M92.22,44.78c.43-.23,1.27-.69,1.4-.73.54.57.96,1.03,1.06,1.13-1.44-.07-2.17-.3-2.46-.4Z"/>
        <path class="cls-18" d="M94.58,45.23c.43-.23,1.27-.69,1.4-.73.54.57.96,1.03,1.06,1.13-1.44-.07-2.17-.3-2.46-.4Z"/>
        <path class="cls-18" d="M96.94,45.71c.43-.23,1.27-.69,1.4-.73.54.57.96,1.03,1.06,1.13-1.44-.07-2.17-.3-2.46-.4Z"/>
      </g>
    </g>
    <g>
      <path class="cls-17" d="M6.59,46.08c3.68-1.42,7.03-2.91,12.76-3.88,2.51-.43,5.71-1.57,9.1-1.95,22.95-2.58,60.63,3.27,75.81,6.14-7.28,2.6-16.53,6.17-29.66,6.58-10.48.33-29.02.28-42.07.2-12.02-.08-21.53-2.07-25.74-5.45,1.77-.03,3.72-.39,3.72-.39-2.86-.15-3.92-1.25-3.92-1.25Z"/>
      <g>
        <g class="cls-26">
          <path class="cls-1" d="M24.1,46.08c8.5-2.5,72.78-.39,74.86,0-21.32.08-66.36,0-74.86,0Z"/>
          <path class="cls-18" d="M4.93,46.34c3.72-.95,16.48-1.65,18.34-1.84,13.89-4.4,68.04,2.43,83.49,2.04-26.67-10.12-94.66-13.58-101.83-.2Z"/>
        </g>
        <path class="cls-19" d="M34.65,51.01c12.06,1.03,43.94,1.74,53.27-1.48-22.18,1.21-33.63.99-53.27,1.48Z"/>
        <path class="cls-12" d="M23.27,43.01c8.21-2.33,27.04-1.09,29.48-1.18-9.22-1.35-23.79-2.11-29.48,1.18Z"/>
      </g>
    </g>
    <g>
      <g>
        <circle class="cls-23" cx="15.16" cy="47.33" r="1.66" transform="translate(-1.11 .37) rotate(-1.34)"/>
        <circle class="cls-14" cx="15.16" cy="47.33" r="1.25"/>
      </g>
      <path class="cls-18" d="M23.36,48.36c2.46,1.43,4.49,2.03,5.73,1.88s6-2.17,1.84-2.37c-3.41-.16-5.84.21-7.57.49Z"/>
      <path class="cls-1" d="M21.94,44.93c1.48,2.82,1.45,4.29,1.21,5.38-.22,1.04-1.48,1.51-2.45.83,2.17-.72,1.54-3.8,1.23-6.21Z"/>
    </g>
  </g>
  <g>
    <g>
      <g>
        <path class="cls-6" d="M415.12,27.42c1.09-.5,2.22-.73,2.22-.73.66.7,1.36,1.57,1.36,1.57-1.16-.14-2.68-.55-3.58-.84Z"/>
        <path class="cls-6" d="M410.69,26.34c1.09-.5,2.22-.73,2.22-.73.66.7,1.36,1.57,1.36,1.57-1.16-.14-2.68-.55-3.58-.84Z"/>
        <path class="cls-6" d="M419.58,28.42c1.04-.43,2.09-.71,2.09-.71.71.79,1.26,1.58,1.26,1.58-1.35-.2-3.01-.6-3.36-.88Z"/>
        <path class="cls-6" d="M423.36,29.48c.83-.38,1.74-.67,1.74-.67.75.81,1.13,1.32,1.13,1.32-1.56-.24-1.8-.32-2.87-.65Z"/>
      </g>
      <path class="cls-1" d="M403.9,39.62c.79,1,1.87,1.78,3.99,3.06.19-2.36,4.12-2.72,6.15-3.98-.9-.03-1.89-.86-2.06-1.43-4.48.98-6.37,1.99-8.08,2.36Z"/>
      <path class="cls-1" d="M372,40.2c1.8,2.45,4.68,4.83,6.79,5.3,1.23.27,2.22.44,1.04-.97-.95-1.14-1.6-2.46-3.61-3.29-2.34-.97-5.68-3.02-4.23-1.05Z"/>
      <path class="cls-6" d="M433.01,31.76c.06-.39.18-.63.81-1.42,1.26-1.58,3.75-4,3.43-5.88-.03-.16-1.42.42-2.55,1.17-1.13.75-2.8,2.38-4.55,4.13-.96.95-1.92,1.87-2.34,2,.42.13,1.38,1.04,2.34,2,1.75,1.75,3.43,3.38,4.55,4.13,1.13.75,2.52,1.34,2.55,1.17.32-1.88-2.17-4.3-3.43-5.88-.63-.79-.75-1.03-.81-1.42Z"/>
      <path class="cls-6" d="M373.72,24.27c1.81-2.23,4.65-5.38,9.39-7.67,1.15,2.89-2.51,4.08,1.82,6.22-6.43,2.19-11.21,1.45-11.21,1.45Z"/>
      <path class="cls-6" d="M398.01,24.6c2.34-1.36,4.06-2.53,6.19-3.21.3,2.04,3.9,3.13,5.67,3.25-.55.86-.81,1.35-1.3,1.75-1.7-.61-10.57-1.8-10.57-1.8Z"/>
      <g>
        <path class="cls-19" d="M425.04,33.85c-.48.75-.97,1.5-.97,1.5-1-.23-1.93-.54-1.93-.54.92-.35,2.07-.67,2.9-.96Z"/>
        <path class="cls-19" d="M421.79,35.06c-.48.75-.97,1.5-.97,1.5-1-.23-1.93-.54-1.93-.54.92-.35,2.07-.67,2.9-.96Z"/>
        <path class="cls-19" d="M418.16,36.16c-.48.75-.97,1.5-.97,1.5-1-.23-1.93-.54-1.93-.54.92-.35,2.07-.67,2.9-.96Z"/>
      </g>
    </g>
    <g>
      <g>
        <path class="cls-19" d="M355.92,28.24c-1.27.77-4.48,3.39-5.05,4.78,1.65,1.15,4.08,2,7.14,2.24-1.51.9-3.81,1.16-5.99,1.26,2.33,1.94,8.71,3.91,12.52,4.5,22.75,3.52,40.1,1.03,67.16-9.4-40.41-12.56-62.41-11.55-75.77-3.39Z"/>
        <path class="cls-10" d="M384.93,39.8c15.16,1.19,30.65-4.45,34.34-6.11-11.13,2.3-21.26,4.21-34.34,6.11Z"/>
        <g class="cls-29">
          <path class="cls-9" d="M357.24,29.27c8.19.56,20.23,1,27.68,1.19,21.66.56,35.67,1.43,46.88,1.14-44.72-16.33-66.06-9.35-74.56-2.33Z"/>
          <path class="cls-11" d="M352.32,29.78c30.41-1.65,70.62,1.3,79.78,1.85-52.78-18.01-72.8-7.96-79.78-1.85Z"/>
          <g>
            <path class="cls-6" d="M364.86,21.66c-.51,2.4,1.32,2.39.58,3.6-.44.72-1.39,1.48-.33,2.34.84.69.03,1.75-1.09.89-1.11-.87-1.17-1.55-.55-2.53.51-.79.76-1.18-.49-1.79-1.25-.61-.99-1.72-.99-1.72.95-.4,2.87-.79,2.87-.79Z"/>
            <path class="cls-6" d="M359.59,24.19c1.4-.37,2.03-.1,2.38.61.62,1.26.24,2.62-.35,3.39-.47.61-1.7.94-2.15.58-.51-.41-.32-1,.58-1.23.85-.21.98-1.64.21-1.98-.6-.27-1.24.48-1.38-.37-.14-.84.06-.83.72-1Z"/>
            <path class="cls-6" d="M366.93,24.29c-1.11.62-.54,1.69-.09,1.98.84.54.34.95.09,1.85-.19.71.84,1,1.26.39.51-.73.87-1.58.19-2.44-.52-.66.2-1.84,1.1-2.04,1.18-.27,2.48.53,1.98,1.85-.37.99-1.48,1.79-.97,2.54.3.45,1.03.48,1.42-.7.42-1.25,2.3-.82,1.4.41-.53.74.39.97.74.69,1.13-.93,1.11-2.44-.13-2.88-1.08-.39-.72-1.17-1.06-1.86-.48-.95-1.07-1.23-1.86-1.37-.83-.15-.5-.96.76-2.59.49-.64-2.52-.44-2.95.64-.93,2.34-1.06,3.09-1.87,3.54Z"/>
            <path class="cls-6" d="M375.19,20.7c-1.79.16-1.77,1.95-.74,3.02.87.91,1.57,1.05,1.41,2.86-.12,1.41,1.46,2.18,2.52,2.1.75-.06,2.16-.52,2.06-1.21-.2-1.27-1.65-.05-2.54-.59-.48-.29-.9-1.03-.52-1.82.39-.79,1.36-.44,3.02-1.57,1.13-.77,1.42-1.94,1.06-3-.21-.61-1.55-.05-1.53.51.07,1.76-.88,1.99-1.9,2.26-1.32.35-2.46.15-2.49-.88-.03-1.03,3.16-.74,3.42-2.42.36-2.38-2.02-1.89-1.89-1.11.21,1.3-.82,1.76-1.87,1.86Z"/>
            <path class="cls-6" d="M381.46,24.25c-1.35.08-1.69.85-1.19,1.42.38.44,1.52.14,2.38-.06.81-.19,1.7.87.18,1.5-.61.25-1.27.65-.88,1.4.38.74,2.39-.03,2.98-.98.3-.48.65-1.4-.25-2.43-1.01-1.16-.25-1.84.86-3.48.65-.96.07-1.86-.76-2.63-1.39-1.27-1.31.11-2.29.21,1.26.88,1.03,1.89.95,2.68-.14,1.41-.36,2.28-1.98,2.37Z"/>
            <path class="cls-6" d="M396.22,24.66c-.05-.72-.14-1.83.96-2.52,1.22-.77-.69-.97-1.14-1.44-.35-.36-4.94-1.28-6.24.55-.97,1.36.65,1.51,1.1,1.03,1.59-1.69,4.69-1.35,3.74.06-.99,1.46.46,1.99.31,3.03-.14.98-1.23.66-1.46-.22-.35-1.3-1.73-1.88-2.92-1.92-1.8-.06-2.25.97-2.85.46-.36-.3-.49-.76.25-1.81.82-1.16,2.95-2.05.55-3-.58-.23-1.09.27-2.26.25.72.57,1.23.64.82,1.7-.47,1.21-2.05,2.32-.74,3.78,1.04,1.16-.07,1.8.49,3.15.3.74,1.26,1.35,2.53,1.35.99,0,1.45-1.11-.16-1.29-.92-.1-.97-.99-.89-1.76.08-.78.93-1.73,2.48-1.43,2.07.41,1.46,2.48,3.02,4,.94.92,1.94.17,1.19-.6-1.02-1.04.12-1.63.63-1.05.47.53.96,1.51,2.05,1.91,1.39.51,1.87-1.08.95-1.3-1.99-.47-2.33-1.99-2.39-2.94Z"/>
            <path class="cls-6" d="M401.07,21.57c-.23.07-2.26.21-2.82,1.72-.68,1.85.24,3.37,1.2,3.92,1.47.83,2.07-.51.8-1.22-1.43-.8-.39-3.27,1.53-3.24.24-1.09-.71-1.18-.71-1.18Z"/>
            <path class="cls-6" d="M403.85,22.42c-.9,2.14-.45,3.41-.44,4.21s-1.21,1.12-1.62,2c-.53,1.13,1.1,1.34,1.69.46.58-.88,1.21-1.22,2.68-2.02,1.42-.77,1.98-3.79,1.82-3.79-1.14-.52-1.68-.31-1.68-.31.5,1.96-.78,3.67-1.35,3.2-.56-.46.28-3.08.38-3.46-.91-.24-1.48-.29-1.48-.29Z"/>
            <path class="cls-6" d="M369.26,25.26c.28-.7.84-.61,1.18-.24.34.37.12,1.13-.52,1.08-.64-.06-.8-.49-.66-.84Z"/>
            <path class="cls-6" d="M389.63,26.23c.33-1.12,1.65-.53,1.65.15.01,1.25-1.97.92-1.65-.15Z"/>
            <path class="cls-6" d="M400.96,24.98c.5-.9,1.8-.75,1.43.3s-1.84.45-1.43-.3Z"/>
            <path class="cls-6" d="M409.7,23.81c.16,2.37-3.47,2.99-3.22,5.12.14,1.25,1.5,1.01,1.44-.24-.07-1.42,3.78-2.89,3.47-4.56-.16-.87-1.72-.81-1.69-.32Z"/>
            <path class="cls-6" d="M412.08,24.59c-.03,2.15-1.24,2.41-2.14,3.39-1.07,1.17-.56,1.99.15,1.93.92-.09.63-1.19,1.42-1.8,1.02-.78,2.19-.87,2.06-3.2-.55-.23-1.48-.55-1.48-.32Z"/>
            <path class="cls-6" d="M415.09,27.17c-.71.73-1.64.42-2.49,1.64-.63.9.21,1.54.97,1.09.76-.45.48-.97,1.7-1.4.93-.33,1.41.15,1.08.59-.73.97-.03,1.28.46,1.22.66-.08,1.03-1.38,1.11-2.05.14-1.17-.34-1.96-.68-2.6-.31-.08-1.25-.4-2.46-.56.45.49.57,1.81.32,2.07Z"/>
            <path class="cls-6" d="M419.04,26.52c.92,1.93.13,2.77-.36,2.95-.49.18-.55.92.12,1,.86.11,2.21-.64,2.03-3.37-.5-.45-.88-.57-1.79-.58Z"/>
            <path class="cls-6" d="M422.1,27.47c.2.88-.13,2-.75,2.31-.6.3-.15.92.45.78,1.13-.25,1.63-1.51,1.66-2.64-.35-.12-.57-.45-1.36-.46Z"/>
            <path class="cls-6" d="M424.1,28.62c.07,1.48-.68,1.64-.47,2.04.31.62,1.55-.09,1.45-1.85-.04-.72-1-.67-.98-.19Z"/>
            <path class="cls-6" d="M426.26,29.55c.12.71-.62.87-.41,1.27.31.62,1.58-.3,1.39-1-.19-.7-1.06-.74-.98-.27Z"/>
          </g>
        </g>
      </g>
      <path class="cls-1" d="M372.25,35.7c2.7-1.76,7.91-2.43,10.82-1.73,1.54.37-.58,1.46-2.05,2.44-1.47.99-2.22,1.25-4.63.74-2-.42-2.89-.62-3.36-.68-1.03-.14-1.32-.42-.78-.77Z"/>
      <circle class="cls-23" cx="361.73" cy="32.96" r="2.06"/>
      <circle class="cls-14" cx="361.73" cy="32.96" r="1.49"/>
      <path class="cls-1" d="M368.02,30.21c3.35,2.6,5.93,9.97-.97,9.97,3.95-2.02,3.22-5.11.97-9.97Z"/>
    </g>
  </g>
  <g>
    <path class="cls-15" d="M324.72,67.65c-2.72-3.09-5.42-6.91-5.42-8.18s2.7-5.09,5.42-8.18c1.98-2.25,3.58-3.61,6.06-4.55-10.01-2.2-17.76,12.73-22.77,12.73,5.01,0,12.76,14.93,22.77,12.73-2.48-.94-4.08-2.31-6.06-4.55Z"/>
    <g>
      <path class="cls-15" d="M278.28,71.92c2.91,3.55,5.9,5.3,10.52,6.19,1.45-6.5,8.47-4.93,19.45-13.42-3.56-1.33-6.45-1.6-6.45-1.6-17.45,7.65-17.7,7.11-23.52,8.84Z"/>
      <g>
        <path class="cls-15" d="M252.41,45.6c3.16-2.21,6.15-5.16,6.15-5.16-.92,2.76.17,2.68,2.73,1.45-1.44,2.89,2.43,1.54,2.43,1.54-1.34,1.02-3.42,2.53-3.42,2.53-4.02.09-7.89-.35-7.89-.35Z"/>
        <path class="cls-15" d="M258.19,48.98c7.82-6.19,14.2-9.23,17.72-10.34.38,3.45,4.1,5.86,9.81,7.61,7.11,2.18,11.08.77,24.83,6.29-.61.35-5.85-.36-7.84,2.52-14.12-.25-41.9-5.36-44.52-6.08Z"/>
        <g>
          <path class="cls-4" d="M266.12,46.36c4.89-3.16,6.83-3.95,8.4-4.44-4.41,3.71-5.53,4.93-5.53,4.93l-2.88-.49Z"/>
          <path class="cls-4" d="M269.48,48.02c4.89-3.16,6.32-3.78,7.89-4.27-4.41,3.71-5.01,4.76-5.01,4.76l-2.88-.49Z"/>
        </g>
      </g>
      <path class="cls-15" d="M244.3,74.02c1.87,3.79,5.77,7.55,10.34,8.12.3.04,1.07.25.74-.57-.83-2.07-1.81-4.13-2.46-4.94-1.27-1.59-3.2-1.52-3.99-2.24-1.14-.24-1.84-.36-4.63-.36Z"/>
      <path class="cls-5" d="M215.38,58.03c2.37,4.08,7.69,5.52,7.69,5.52-3.85,2.05-6.63,1.95-6.63,1.95,5.9,7.42,59.35,19.86,98.19-6.07-20.31-10.2-67.26-26.45-99.26-1.4Z"/>
      <path class="cls-24" d="M243,70.59c24.08-.94,47.1-4.63,58.24-6.72-12.57,6.72-42.13,10.68-58.24,6.72Z"/>
      <g class="cls-28">
        <g>
          <path class="cls-20" d="M213.92,57.07c25.28-3.75,97.88,1.18,98.32,1.26-37.46-15.66-74.87-19.45-98.32-1.26Z"/>
          <path class="cls-22" d="M210.07,58.96c47.14-11.11,105.34.37,105.81.75-27-17.04-87.97-23.83-105.81-.75Z"/>
          <path class="cls-16" d="M238.29,52.14c8.06-4.09,24.05-3.97,34.79-1.02-14.32-.64-29.67.77-34.79,1.02Z"/>
        </g>
      </g>
      <path class="cls-22" d="M243,61.54c1.3.58,4.45,2.55,1.85,5.8,7.3.22,8.58-2.87,11.07-4.62,2.49-1.75,5.04-1.9,2.65-2.66-5.3-1.7-12.05-.02-15.57,1.48Z"/>
      <g>
        <circle class="cls-23" cx="227.57" cy="59.44" r="2.58" transform="translate(-.56 2.18) rotate(-.55)"/>
        <circle class="cls-14" cx="227.57" cy="59.44" r="1.7"/>
      </g>
      <path class="cls-22" d="M239.16,56.8c3.25,4.22,5.14,14.2-3.31,14.13,4.96-2.05,5.13-7.04,3.31-14.13Z"/>
    </g>
  </g>
  <g>
    <g>
      <g>
        <path class="cls-7" d="M145.98,82.58c.65.41,1.07.66,1.07.66.14-.62.29-1.23.29-1.23-.62-.15-1.67.39-1.36.58Z"/>
        <path class="cls-7" d="M148.45,81.8c.69.35,1.13.56,1.13.56.09-.63.18-1.25.18-1.25-.63-.09-1.62.53-1.31.7Z"/>
        <path class="cls-7" d="M150.67,80.82c.69.35,1.13.56,1.13.56.09-.63.18-1.25.18-1.25-.63-.09-1.62.53-1.31.7Z"/>
        <path class="cls-7" d="M152.66,79.73c.69.35,1.13.56,1.13.56.09-.63.18-1.25.18-1.25-.63-.09-1.62.53-1.31.7Z"/>
      </g>
      <g>
        <path class="cls-13" d="M145.55,72.96c.66-.39,1.14-.63,1.14-.63.13.62.26,1.15.26,1.15-.62.14-1.34-.27-1.41-.52Z"/>
        <path class="cls-13" d="M147.78,73.65c.62-.45,1.03-.73,1.03-.73.19.61.37,1.21.37,1.21-.44.06-1.02-.09-1.4-.48Z"/>
        <path class="cls-13" d="M150.01,74.33c.66-.39,1.09-.63,1.09-.63.13.62.26,1.24.26,1.24-.62.14-1.66-.43-1.35-.61Z"/>
        <path class="cls-13" d="M152.19,75.2c.66-.39,1.09-.63,1.09-.63.13.62.26,1.24.26,1.24-.62.14-1.02-.18-1.35-.61Z"/>
      </g>
      <g>
        <path class="cls-13" d="M162.77,69.3c-1.67-.04-2.31.63-3.7,2.41-1.42,1.82-2.21,4.94-3.94,5.37,1.48.58,2.52,3.55,3.94,5.37,1.39,1.78,2.03,2.45,3.7,2.41-2.01-1.98-3.38-6.32-3.51-7.78-.04-1.46,1.5-5.8,3.51-7.78Z"/>
        <path class="cls-7" d="M139.38,72.04c1.1-1.25,3.78-3.34,4.43-2.73-.79.87-1.62,1.87-1.19,3.36-.85-.19-2.31-.58-3.24-.63Z"/>
        <path class="cls-7" d="M126.6,72.4c3.92-3.11,8.15-4.51,9.73-4.68-.5.39-1.12,1.28-1.3,1.71-.24.57,1.47,1.26,2.29,1.81-1.45.84-9.04,1.61-10.72,1.15Z"/>
        <path class="cls-7" d="M141.37,83.02c1.54,1.87,2.81,2.23,3.76,2.39,1.51.25.49-.24.07-.81-.52-.7-.92-1.44-.78-2.42-.66.24-1.92.61-3.04.84Z"/>
        <path class="cls-7" d="M126.86,84.03c1.35,2.23,3.04,2.96,4.64,3.31.74.16.64-.1.27-.72-.43-.71-1.17-1.65-1.28-2.18-.57-.12-2.23-.41-3.63-.41Z"/>
      </g>
    </g>
    <g>
      <path class="cls-8" d="M113.91,76.34c1.19,2.05,3.95,3.04,3.95,3.04-1.53.73-3.42.71-3.42.71,2.96,3.72,23.94,9.97,43.43-3.05-10.21-4.19-30.71-11.45-43.97-.7Z"/>
      <g class="cls-27">
        <path class="cls-7" d="M136.67,78.22c9.97-.93,19.5-1.35,22.05-1.31-4.08.83-15.97,2.01-22.05,1.31Z"/>
        <path class="cls-7" d="M130.82,81.23c12.82-1.49,17.32-2.42,28.3-4.5-10.12,3.5-23.06,4.85-28.3,4.5Z"/>
        <path class="cls-7" d="M129.6,83.03c11.88-.66,20.16-2.74,29.57-6.71-8.72,5.42-22.1,7.62-29.57,6.71Z"/>
        <path class="cls-7" d="M128.42,76.27c11.22.09,26.58.81,30.11.81-9.62-1.24-23.89-2.12-30.11-.81Z"/>
        <path class="cls-13" d="M112.62,76.34c15.03-6.2,45.66.79,45.88.83-13.55-8.56-32.94-10.62-45.88-.83Z"/>
      </g>
      <path class="cls-7" d="M127.93,78.58c.72.41,1.63,1.14,1.66,1.89,2.24-.27,3.27-.54,4.73-.98,1.69-.5,1.92-.88.68-1.04-2.01-.26-5.15-.09-7.07.12Z"/>
      <g>
        <circle class="cls-23" cx="120.27" cy="76.79" r="1.3"/>
        <circle class="cls-14" cx="120.27" cy="76.79" r=".94"/>
      </g>
      <path class="cls-7" d="M125.84,75.71c1.63,2.4,2.29,8.12-1.66,7.51,2.6-.62,2.58-3.47,1.66-7.51Z"/>
      <path class="cls-7" d="M123.7,78.81c.41,1.42-.11,3.14-1.03,3.31s-1.98-.51-1.98-.51c1.27.21,1.86.08,2.27-.45.49-.63.71-1.75.74-2.35Z"/>
    </g>
  </g>
</svg>