<svg xmlns="http://www.w3.org/2000/svg" xmlns:xlink="http://www.w3.org/1999/xlink">
	<symbol viewBox="0 0 16 16" id="unicorp-icon">
		<g>
			<path class="st0" d="M11.92,8.83h1.39v0c0,2.51-2,4.56-4.49,4.61l-0.1,0V12l0.07,0C10.54,12.03,11.97,10.59,11.92,8.83L11.92,8.83z
				"/>
			<g>
				<ellipse class="st0" cx="1.54" cy="1.42" rx="1.42" ry="1.42"/>
				<ellipse class="st0" cx="5.85" cy="1.42" rx="1.42" ry="1.42"/>
				<ellipse class="st0" cx="1.54" cy="5.76" rx="1.42" ry="1.42"/>
				<ellipse class="st0" cx="5.85" cy="5.76" rx="1.42" ry="1.42"/>
				<path class="st0" d="M8.72,0v7.18h7.16V0H8.72z M12.3,5.57l-1.97-1.97l1.97-1.97l1.97,1.97L12.3,5.57z"/>
				<path class="st0" d="M7.27,16L7.27,16l0-7.17H0.12v0.02C0.12,12.8,3.32,16,7.27,16z"/>
				<path class="st0" d="M10.76,8.84L10.76,8.84L8.72,8.83v2.05h0C9.85,10.88,10.76,9.96,10.76,8.84z"/>
				<path class="st0" d="M14.44,8.83h1.43v0c0,3.96-3.2,7.17-7.15,7.17H8.72v-1.39h0c3.16,0,5.73-2.57,5.73-5.74V8.83z"/>
			</g>
		</g>
	</symbol>

    <symbol viewBox="0 0 16 16" id="cyberculture-icon">
        <path class="st0" d="M7.45,0C4.41,0.06,1.78,1.82,0.49,4.38c-0.33,0.64,0.15,1.4,0.87,1.4h0.03c0.37,0,0.7-0.21,0.87-0.55
        C3.23,3.28,5.2,1.9,7.5,1.79c2.03-0.1,3.86,0.77,5.07,2.19c0.6,0.71,0.08,1.8-0.85,1.8h-0.04c-0.32,0-0.61-0.14-0.82-0.38
        C10.12,4.54,9.04,4,7.82,4c-2.26,0-4.08,1.88-4,4.16c0.08,2.06,1.74,3.74,3.8,3.84c1.29,0.06,2.46-0.49,3.23-1.39
        c0.21-0.24,0.5-0.39,0.82-0.39h0.04c0.94,0,1.45,1.1,0.84,1.82c-1.14,1.34-2.84,2.18-4.73,2.18c-2.45,0-4.56-1.41-5.58-3.46
        c-0.16-0.33-0.51-0.54-0.87-0.54h0c-0.74,0-1.21,0.78-0.87,1.44C1.83,14.24,4.52,16,7.62,16c4.46,0,8.06-3.64,8-8.11
        C15.56,3.47,11.87-0.09,7.45,0z"/>
    </symbol>

    <symbol viewBox="0 0 16 16" id="expo-icon">
        <g>
            <g>
                <rect x="0.68" y="0.1" class="st0" width="5.09" height="1.72"/>
                <rect x="0.68" y="2.73" class="st0" width="5.09" height="1.72"/>
                <rect x="0.68" y="5.36" class="st0" width="5.09" height="1.72"/>
            </g>
            <g>
                
                    <rect x="7.66" y="2.57" transform="matrix(0.7071 -0.7071 0.7071 0.7071 0.8934 9.3415)" class="st0" width="8.12" height="2.04"/>
                
                    <rect x="7.66" y="2.57" transform="matrix(0.7071 0.7071 -0.7071 0.7071 5.9737 -7.2372)" class="st0" width="8.12" height="2.04"/>
            </g>
            <g>
                
                    <rect x="-1.61" y="11.35" transform="matrix(6.123234e-17 -1 1 6.123234e-17 -10.5335 14.2975)" class="st0" width="6.98" height="2.13"/>
                <circle class="st0" cx="3.23" cy="11.34" r="2.41"/>
            </g>
            <path class="st0" d="M11.33,8.83c-1.98,0-3.58,1.6-3.58,3.58c0,1.98,1.6,3.58,3.58,3.58c1.98,0,3.58-1.6,3.58-3.58
                C14.92,10.44,13.31,8.83,11.33,8.83z M11.33,14.44c-1.12,0-2.03-0.91-2.03-2.03c0-1.12,0.91-2.03,2.03-2.03
                c1.12,0,2.03,0.91,2.03,2.03C13.36,13.54,12.45,14.44,11.33,14.44z"/>
        </g>
    </symbol>

    <symbol viewBox="0 0 16 16" id="visualmodo-icon">
        <path class="st0" d="M15.96,4.08L15.96,4.08l-1.39-2.51c-0.05-0.1-0.16-0.16-0.27-0.16h-3.86c-0.11,0-0.21,0.06-0.27,0.15
            c0,0,0,0,0,0l0,0L8.01,5.32L5.86,1.56C5.8,1.47,5.7,1.41,5.59,1.41H1.73c-0.11,0-0.21,0.06-0.27,0.16c0,0,0,0,0,0l0,0L0.04,4.05
            c-0.05,0.1-0.05,0.21,0,0.31l5.75,10.08c0.06,0.1,0.16,0.16,0.27,0.16c0,0,0,0,0,0c0,0,0,0,0,0v0l3.89-0.03
            c0.11,0,0.21-0.06,0.27-0.16l5.74-10.03C16.01,4.29,16.01,4.17,15.96,4.08z M14.11,2.03l1.05,1.89h-3.15l-1.05-1.89H14.11z
            M10.44,2.35l1.04,1.88L9.41,7.75L8.37,5.94L10.44,2.35z M5.41,2.03l5.41,9.41H7.69L2.27,2.03H5.41z M6.06,13.66L0.67,4.21
            l1.07-1.86l5.42,9.41L6.06,13.66z M9.77,13.95L6.6,13.97l1.09-1.91h3.16L9.77,13.95z M11.37,11.15l-1.6-2.79l2.24-3.83h3.15
            L11.37,11.15z"/>
    </symbol>

    <symbol viewBox="0 0 16 16" id="getpixels-icon">
        <path class="st0" d="M11.18,15.33l-3.22-4.5l-3.33,4.5H0l5.64-7.39L0.19,0.67h4.77L16,15.33H11.18z"/>
        <rect x="11.26" y="0.67" class="st0" width="4.74" height="4.74"/>
    </symbol>

    <symbol viewBox="0 0 16 16" id="showcase-icon">
        <g>
            <path class="st0" d="M4,1.62C2.15,3.45,1.81,6.23,2.98,8.4L2.24,9.15c-0.95,0.95-0.95,2.5,0,3.45l1.73,1.73l0,0
                c2.23,2.23,5.84,2.23,8.06,0c1.83-1.83,2.15-4.58,0.98-6.75l0.74-0.74c0.95-0.95,0.95-2.5,0-3.45l-1.69-1.69
                C9.85-0.53,6.24-0.58,4,1.62z M10.89,7.43c1.58,1.59,1.58,4.16-0.01,5.75c-1.59,1.59-4.17,1.59-5.76,0l-1.73-1.73
                c-0.32-0.32-0.32-0.83,0-1.15l0,0c0.32-0.32,0.83-0.32,1.15,0l1.73,1.73c0.95,0.95,2.5,0.95,3.46,0c0.95-0.95,0.95-2.5,0-3.46
                L7.44,6.28C7.13,5.97,7.1,5.46,7.4,5.13c0.32-0.34,0.85-0.35,1.17-0.02L10.89,7.43z M12.61,5.69L12.61,5.69
                c-0.32,0.32-0.83,0.32-1.15,0L9.73,3.96c-0.95-0.95-2.5-0.95-3.46,0c-0.95,0.95-0.95,2.5,0,3.46l2.3,2.3
                c0.32,0.32,0.32,0.83,0,1.15c-0.32,0.32-0.83,0.32-1.15,0l0,0l-2.3-2.3l0,0L5.11,8.56C3.53,6.97,3.53,4.4,5.12,2.81
                c1.59-1.59,4.17-1.59,5.76,0l1.73,1.73C12.93,4.85,12.93,5.37,12.61,5.69z"/>
        </g>
    </symbol>

</svg>
