<svg xmlns="http://www.w3.org/2000/svg" width="20px" height="20px" viewBox="0 0 21 21"><g fill="#ffffff">
	<path d="M1.43,0h17.14C19.36,0,20,0.64,20,1.43v5c0,0.79-0.64,1.43-1.43,1.43H1.43C0.64,7.86,0,7.22,0,6.43v-5
		C0,0.64,0.64,0,1.43,0z"/>
	<path d="M1.43,10h7.14C9.36,10,10,10.64,10,11.43v7.14C10,19.36,9.36,20,8.57,20H1.43C0.64,20,0,19.36,0,18.57v-7.14
		C0,10.64,0.64,10,1.43,10z"/>
	<path d="M19.29,10.71h-6.43c-0.39,0-0.71,0.32-0.71,0.71c0,0.39,0.32,0.71,0.71,0.71h6.43c0.39,0,0.71-0.32,0.71-0.71
		C20,11.03,19.68,10.71,19.29,10.71z"/>
	<path d="M19.29,14.29h-6.43c-0.39,0-0.71,0.32-0.71,0.71s0.32,0.71,0.71,0.71h6.43c0.39,0,0.71-0.32,0.71-0.71
		S19.68,14.29,19.29,14.29z"/>
	<path d="M19.29,17.86h-6.43c-0.39,0-0.71,0.32-0.71,0.71s0.32,0.71,0.71,0.71h6.43c0.39,0,0.71-0.32,0.71-0.71
		S19.68,17.86,19.29,17.86z"/>
</g>
</svg>
